solid a1
 facet normal -2.115516e-16 -8.924744e-31 -1.000000e+00
   outer loop
     vertex -3.283500e-02 -1.912500e-02  1.600000e-03
     vertex -3.283500e-02  6.125000e-04  1.600000e-03
     vertex -2.258500e-02  6.125000e-04  1.600000e-03
   endloop
 endfacet
 facet normal -2.115516e-16 -8.181015e-31 -1.000000e+00
   outer loop
     vertex -3.283500e-02 -1.912500e-02  1.600000e-03
     vertex -2.258500e-02  6.125000e-04  1.600000e-03
     vertex -2.258500e-02 -1.912500e-02  1.600000e-03
   endloop
 endfacet
 facet normal  3.384826e-16  1.427959e-30  1.000000e+00
   outer loop
     vertex -2.258500e-02  6.125000e-04  6.105000e-03
     vertex -3.283500e-02  6.125000e-04  6.105000e-03
     vertex -3.283500e-02 -1.912500e-02  6.105000e-03
   endloop
 endfacet
 facet normal  3.384826e-16  1.308962e-30  1.000000e+00
   outer loop
     vertex -2.258500e-02  6.125000e-04  6.105000e-03
     vertex -3.283500e-02 -1.912500e-02  6.105000e-03
     vertex -2.258500e-02 -1.912500e-02  6.105000e-03
   endloop
 endfacet
 facet normal  4.738757e-15 -1.000000e+00  0.000000e+00
   outer loop
     vertex -2.258500e-02 -1.912500e-02  6.105000e-03
     vertex -3.283500e-02 -1.912500e-02  1.600000e-03
     vertex -2.258500e-02 -1.912500e-02  1.600000e-03
   endloop
 endfacet
 facet normal  4.738757e-15 -1.000000e+00  0.000000e+00
   outer loop
     vertex -2.258500e-02 -1.912500e-02  6.105000e-03
     vertex -3.283500e-02 -1.912500e-02  6.105000e-03
     vertex -3.283500e-02 -1.912500e-02  1.600000e-03
   endloop
 endfacet
 facet normal -1.000000e+00 -4.218707e-15  0.000000e+00
   outer loop
     vertex -3.283500e-02  6.125000e-04  1.600000e-03
     vertex -3.283500e-02 -1.912500e-02  1.600000e-03
     vertex -3.283500e-02 -1.912500e-02  6.105000e-03
   endloop
 endfacet
 facet normal -1.000000e+00 -4.218707e-15  0.000000e+00
   outer loop
     vertex -3.283500e-02  6.125000e-04  1.600000e-03
     vertex -3.283500e-02 -1.912500e-02  6.105000e-03
     vertex -3.283500e-02  6.125000e-04  6.105000e-03
   endloop
 endfacet
 facet normal  1.000000e+00  3.867148e-15  0.000000e+00
   outer loop
     vertex -2.258500e-02  6.125000e-04  6.105000e-03
     vertex -2.258500e-02 -1.912500e-02  1.600000e-03
     vertex -2.258500e-02  6.125000e-04  1.600000e-03
   endloop
 endfacet
 facet normal  1.000000e+00  3.867148e-15  0.000000e+00
   outer loop
     vertex -2.258500e-02  6.125000e-04  6.105000e-03
     vertex -2.258500e-02 -1.912500e-02  6.105000e-03
     vertex -2.258500e-02 -1.912500e-02  1.600000e-03
   endloop
 endfacet
 facet normal -4.273343e-15  1.000000e+00  0.000000e+00
   outer loop
     vertex -2.258500e-02  6.125000e-04  1.600000e-03
     vertex -3.283500e-02  6.125000e-04  1.600000e-03
     vertex -3.283500e-02  6.125000e-04  6.105000e-03
   endloop
 endfacet
 facet normal -4.273343e-15  1.000000e+00  0.000000e+00
   outer loop
     vertex -2.258500e-02  6.125000e-04  1.600000e-03
     vertex -3.283500e-02  6.125000e-04  6.105000e-03
     vertex -2.258500e-02  6.125000e-04  6.105000e-03
   endloop
 endfacet
endsolid a1
