solid fluidInlet
 facet normal -1.000000e+00  2.775558e-16 -1.734723e-15
   outer loop
     vertex -4.615000e-02  6.985000e-02  4.000000e-02
     vertex -4.615000e-02  6.985000e-02 -2.414735e-17
     vertex -4.615000e-02 -3.015000e-02 -7.045059e-17
   endloop
 endfacet
 facet normal -1.000000e+00  2.775558e-16 -1.734723e-15
   outer loop
     vertex -4.615000e-02  6.985000e-02  4.000000e-02
     vertex -4.615000e-02 -3.015000e-02 -7.045059e-17
     vertex -4.615000e-02 -3.015000e-02  4.000000e-02
   endloop
 endfacet
endsolid fluidInlet
solid fluidOutlet
 facet normal  1.000000e+00 -2.775558e-16  1.734723e-15
   outer loop
     vertex  5.385000e-02  6.985000e-02  1.285083e-16
     vertex  5.385000e-02  6.985000e-02  4.000000e-02
     vertex  5.385000e-02 -3.015000e-02  4.000000e-02
   endloop
 endfacet
 facet normal  1.000000e+00 -2.775558e-16  1.734723e-15
   outer loop
     vertex  5.385000e-02  6.985000e-02  1.285083e-16
     vertex  5.385000e-02 -3.015000e-02  4.000000e-02
     vertex  5.385000e-02 -3.015000e-02  8.220508e-17
   endloop
 endfacet
endsolid fluidOutlet
solid fluidExternal
 facet normal  2.775558e-16  1.000000e+00  3.469447e-16
   outer loop
     vertex  5.385000e-02  6.985000e-02  4.000000e-02
     vertex -4.615000e-02  6.985000e-02 -2.414735e-17
     vertex -4.615000e-02  6.985000e-02  4.000000e-02
   endloop
 endfacet
 facet normal  2.775558e-16  1.000000e+00  3.469447e-16
   outer loop
     vertex  5.385000e-02  6.985000e-02  4.000000e-02
     vertex  5.385000e-02  6.985000e-02  1.285083e-16
     vertex -4.615000e-02  6.985000e-02 -2.414735e-17
   endloop
 endfacet
 facet normal -1.526557e-15 -4.857226e-16  1.000000e+00
   outer loop
     vertex  5.385000e-02  6.985000e-02  4.000000e-02
     vertex -4.615000e-02  6.985000e-02  4.000000e-02
     vertex -4.615000e-02 -3.015000e-02  4.000000e-02
   endloop
 endfacet
 facet normal -1.526557e-15 -4.857226e-16  1.000000e+00
   outer loop
     vertex  5.385000e-02  6.985000e-02  4.000000e-02
     vertex -4.615000e-02 -3.015000e-02  4.000000e-02
     vertex  5.385000e-02 -3.015000e-02  4.000000e-02
   endloop
 endfacet
 facet normal -3.122502e-16 -1.000000e+00 -6.071532e-16
   outer loop
     vertex -4.615000e-02 -3.015000e-02  4.000000e-02
     vertex -4.615000e-02 -3.015000e-02 -7.045059e-17
     vertex  5.385000e-02 -3.015000e-02  8.220508e-17
   endloop
 endfacet
 facet normal -2.428613e-16 -1.000000e+00 -4.336809e-16
   outer loop
     vertex -4.615000e-02 -3.015000e-02  4.000000e-02
     vertex  5.385000e-02 -3.015000e-02  8.220508e-17
     vertex  5.385000e-02 -3.015000e-02  4.000000e-02
   endloop
 endfacet
 facet normal -2.116363e-16 -3.345288e-32 -1.000000e+00
   outer loop
     vertex -3.885000e-02 -2.015000e-02  8.222069e-18
     vertex -3.885000e-02  2.015000e-02  8.222069e-18
     vertex  3.885000e-02  2.015000e-02 -8.222069e-18
   endloop
 endfacet
 facet normal -2.116363e-16 -4.305390e-31 -1.000000e+00
   outer loop
     vertex -3.885000e-02 -2.015000e-02  8.222069e-18
     vertex  3.885000e-02  2.015000e-02 -8.222069e-18
     vertex  3.885000e-02 -2.015000e-02 -8.222069e-18
   endloop
 endfacet
 facet normal  6.028476e-15  2.998126e-29 -1.000000e+00
   outer loop
     vertex  3.885000e-02  2.015000e-02 -8.222069e-18
     vertex  5.385000e-02 -3.015000e-02  8.220508e-17
     vertex  3.885000e-02 -2.015000e-02 -8.222069e-18
   endloop
 endfacet
 facet normal  1.526557e-15 -6.752880e-15 -1.000000e+00
   outer loop
     vertex -4.615000e-02 -3.015000e-02 -7.045059e-17
     vertex  3.885000e-02 -2.015000e-02 -8.222069e-18
     vertex  5.385000e-02 -3.015000e-02  8.220508e-17
   endloop
 endfacet
 facet normal  7.581178e-15  4.630324e-16 -1.000000e+00
   outer loop
     vertex  5.385000e-02  6.985000e-02  1.285083e-16
     vertex  5.385000e-02 -3.015000e-02  8.220508e-17
     vertex  3.885000e-02  2.015000e-02 -8.222069e-18
   endloop
 endfacet
 facet normal -2.116363e-16  8.021760e-15 -1.000000e+00
   outer loop
     vertex -3.885000e-02 -2.015000e-02  8.222069e-18
     vertex  3.885000e-02 -2.015000e-02 -8.222069e-18
     vertex -4.615000e-02 -3.015000e-02 -7.045059e-17
   endloop
 endfacet
 facet normal  1.077708e-14  4.537569e-29 -1.000000e+00
   outer loop
     vertex -3.885000e-02  2.015000e-02  8.222069e-18
     vertex -3.885000e-02 -2.015000e-02  8.222069e-18
     vertex -4.615000e-02 -3.015000e-02 -7.045059e-17
   endloop
 endfacet
 facet normal -2.116363e-16 -6.823816e-16 -1.000000e+00
   outer loop
     vertex -4.615000e-02  6.985000e-02 -2.414735e-17
     vertex  3.885000e-02  2.015000e-02 -8.222069e-18
     vertex -3.885000e-02  2.015000e-02  8.222069e-18
   endloop
 endfacet
 facet normal  1.526557e-15  2.290383e-15 -1.000000e+00
   outer loop
     vertex -4.615000e-02  6.985000e-02 -2.414735e-17
     vertex  5.385000e-02  6.985000e-02  1.285083e-16
     vertex  3.885000e-02  2.015000e-02 -8.222069e-18
   endloop
 endfacet
 facet normal  7.586593e-15  4.630324e-16 -1.000000e+00
   outer loop
     vertex -4.615000e-02 -3.015000e-02 -7.045059e-17
     vertex -4.615000e-02  6.985000e-02 -2.414735e-17
     vertex -3.885000e-02  2.015000e-02  8.222069e-18
   endloop
 endfacet
endsolid fluidExternal
